<?xml version="1.0" standalone="no"?>
<!DOCTYPE svg PUBLIC "-//W3C//DTD SVG 20010904//EN"
 "http://www.w3.org/TR/2001/REC-SVG-20010904/DTD/svg10.dtd">
<svg version="1.0" xmlns="http://www.w3.org/2000/svg"
 width="500.000000pt" height="500.000000pt" viewBox="0 0 500.000000 500.000000"
 preserveAspectRatio="xMidYMid meet">
<metadata>
Created by potrace 1.14, written by Peter Selinger 2001-2017
</metadata>
<g transform="translate(0.000000,500.000000) scale(0.100000,-0.100000)"
fill="#000000" stroke="none">
<path d="M2251 3885 c-178 -32 -327 -149 -413 -325 -94 -191 -123 -376 -115
-750 6 -269 19 -367 67 -509 65 -195 182 -337 333 -406 123 -57 300 -67 422
-25 67 23 103 47 173 114 l52 50 0 -115 c0 -212 -38 -310 -142 -363 -142 -72
-395 -32 -551 88 l-47 36 -88 -176 -87 -176 45 -39 c96 -83 294 -158 476 -181
164 -20 410 19 542 86 167 85 282 229 338 426 18 61 19 128 22 1153 l3 1087
-230 0 -229 0 -6 -67 c-12 -111 -10 -110 -73 -43 -116 126 -286 172 -492 135z
m404 -439 c28 -12 65 -39 83 -60 l32 -37 0 -486 0 -486 -39 -37 c-103 -98
-308 -93 -395 11 -37 44 -59 97 -82 195 -16 66 -19 119 -18 324 0 260 9 334
54 437 26 61 94 130 146 148 63 23 161 19 219 -9z"/>
</g>
</svg>
