<?xml version="1.0" standalone="no"?>
<!DOCTYPE svg PUBLIC "-//W3C//DTD SVG 20010904//EN"
 "http://www.w3.org/TR/2001/REC-SVG-20010904/DTD/svg10.dtd">
<svg version="1.0" xmlns="http://www.w3.org/2000/svg"
 width="500.000000pt" height="500.000000pt" viewBox="0 0 500.000000 500.000000"
 preserveAspectRatio="xMidYMid meet">
<metadata>
Created by potrace 1.14, written by Peter Selinger 2001-2017
</metadata>
<g transform="translate(0.000000,500.000000) scale(0.100000,-0.100000)"
fill="#000000" stroke="none">
<path d="M2205 4370 c-151 -26 -204 -42 -334 -101 -227 -104 -394 -270 -525
-525 -20 -39 -36 -77 -36 -85 0 -8 -4 -19 -9 -25 -22 -24 -91 -267 -106 -374
-3 -25 -8 -56 -10 -70 -18 -106 -26 -304 -26 -590 1 -124 1 -272 0 -330 -1
-166 -1 -195 1 -200 7 -21 4 -80 -5 -80 -6 0 -6 -3 1 -8 10 -6 17 -61 30 -222
1 -19 4 -37 5 -40 1 -3 3 -9 4 -15 2 -13 13 -58 26 -110 6 -22 11 -47 13 -55
2 -8 6 -23 10 -32 4 -9 5 -22 1 -28 -3 -5 -1 -10 6 -10 6 0 9 -8 6 -20 -3 -11
-1 -18 4 -14 8 4 14 -17 10 -38 0 -5 4 -8 10 -8 8 0 7 -5 -1 -15 -11 -13 -10
-14 4 -9 12 4 15 2 10 -9 -3 -8 0 -18 5 -22 6 -3 9 -11 6 -16 -4 -5 -2 -9 3
-9 9 0 33 -47 35 -67 0 -4 7 -14 14 -21 7 -7 13 -23 13 -34 0 -12 3 -18 6 -15
9 9 75 -103 68 -114 -3 -5 2 -6 10 -3 19 7 21 -7 5 -23 -9 -9 -7 -11 7 -7 12
3 24 -3 34 -17 8 -12 30 -36 48 -52 18 -17 30 -37 28 -44 -3 -7 -2 -12 2 -12
19 3 32 -2 32 -12 0 -6 -7 -8 -17 -4 -14 5 -15 4 -6 -6 9 -9 16 -9 26 -1 10 9
20 4 44 -21 44 -45 60 -57 67 -50 3 4 6 1 6 -5 0 -6 9 -14 20 -17 11 -3 20
-13 20 -21 0 -8 5 -14 11 -14 5 0 7 5 3 12 -8 12 -6 11 59 -29 20 -13 37 -21
37 -18 0 2 18 -5 40 -16 22 -12 40 -25 40 -31 0 -5 -4 -7 -9 -3 -5 3 -12 1
-15 -3 -7 -11 34 -9 53 2 7 5 16 5 20 0 3 -5 13 -11 21 -12 8 -2 24 -6 35 -9
11 -2 26 -5 34 -7 8 -1 21 -11 30 -22 9 -10 23 -20 31 -22 8 -1 4 7 -10 19
-21 17 -21 20 -5 14 20 -7 67 -16 93 -17 6 -1 12 -5 12 -10 0 -4 5 -8 11 -8 5
0 8 4 4 9 -3 6 6 7 22 2 16 -4 38 -7 51 -6 13 1 26 -3 29 -8 3 -6 1 -7 -5 -3
-6 3 -13 2 -17 -3 -3 -6 4 -8 16 -6 15 3 19 0 15 -11 -3 -9 -2 -12 5 -9 5 4 7
15 4 24 -4 15 0 17 25 13 17 -2 27 -9 23 -15 -4 -6 -1 -7 8 -1 22 13 43 14 51
1 6 -9 8 -9 8 1 0 6 7 12 15 12 8 0 15 -4 15 -10 0 -5 5 -10 11 -10 5 0 8 4 5
9 -3 5 23 9 59 9 45 0 63 -4 59 -12 -3 -6 1 -3 9 7 15 18 15 18 20 0 4 -14 5
-15 6 -2 1 22 51 22 68 0 12 -15 13 -15 7 0 -3 10 0 20 7 25 8 5 10 3 4 -7 -7
-11 -6 -12 6 -2 8 7 35 14 60 16 25 2 51 7 58 11 6 4 19 2 28 -6 9 -7 14 -8
10 -2 -4 7 1 15 10 18 9 4 20 2 23 -4 5 -8 9 -6 13 4 9 22 28 20 20 -1 -5 -17
-5 -17 8 -1 21 26 64 39 79 25 8 -8 11 -8 7 -1 -10 17 38 35 52 21 9 -9 10 -8
5 7 -4 12 -4 17 2 13 6 -3 16 -2 24 3 9 5 20 4 29 -3 12 -10 14 -9 8 7 -6 14
-4 17 8 12 8 -3 15 -2 15 2 0 5 16 14 36 21 19 7 62 28 95 46 32 19 59 31 59
28 0 -4 6 1 13 12 8 10 19 15 25 11 7 -4 12 -1 12 6 0 7 12 22 27 32 14 11 23
14 19 8 -4 -7 -2 -12 3 -12 6 0 11 8 11 17 0 9 3 14 6 11 3 -3 20 8 38 26 17
18 38 30 45 28 8 -3 11 0 7 7 -4 6 -2 11 5 11 7 0 10 3 6 6 -6 7 53 60 63 57
3 -1 7 14 8 34 2 19 3 38 4 42 0 3 0 338 -1 744 l-1 737 -635 0 -635 0 -1 -27
c-5 -165 -2 -533 4 -533 5 0 5 -6 1 -12 -5 -9 -2 -9 9 1 11 9 17 10 17 2 0 -6
5 -11 11 -11 5 0 7 5 3 11 -8 14 58 8 68 -6 5 -6 8 -5 8 3 0 6 7 12 15 12 8 0
15 -6 15 -12 0 -9 3 -9 8 -2 8 12 192 15 192 2 0 -4 5 -8 11 -8 5 0 7 5 3 11
-8 14 58 8 68 -6 5 -6 8 -5 8 3 0 18 21 15 36 -5 10 -13 13 -14 9 -3 -4 11 1
16 14 16 19 0 19 -10 20 -338 0 -391 10 -353 -114 -414 -97 -47 -183 -63 -329
-59 -187 4 -309 48 -408 148 -51 51 -119 163 -139 230 -25 79 -39 140 -54 232
-18 106 -25 279 -12 287 9 6 8 8 -1 8 -18 0 -16 836 2 844 7 3 7 5 -2 5 -7 1
-10 6 -7 12 6 9 9 41 17 182 1 15 4 27 8 27 3 0 6 19 7 42 1 23 8 45 15 49 10
7 10 9 1 9 -9 0 -10 6 -3 23 5 12 11 35 15 50 3 15 10 25 15 22 6 -3 7 1 4 10
-4 8 0 23 7 32 8 9 12 17 10 17 -2 1 -1 11 3 24 4 12 12 20 17 17 5 -3 6 1 3
9 -6 15 6 21 29 17 5 -1 6 3 2 9 -3 6 -11 8 -16 5 -5 -4 -9 -1 -9 5 0 6 7 13
15 16 8 4 15 13 15 21 0 8 4 12 9 9 5 -3 11 4 14 15 3 12 10 18 16 15 5 -4 13
-1 17 5 4 8 3 9 -4 5 -19 -12 -14 10 7 28 11 10 25 15 32 10 7 -4 10 -3 6 4
-6 8 70 62 88 63 2 0 20 6 38 14 27 11 37 11 47 2 10 -9 11 -9 6 1 -7 11 5 17
28 13 4 -1 14 3 21 9 10 8 16 7 24 -7 8 -14 10 -15 11 -3 0 16 60 25 60 9 0
-5 5 -9 11 -9 5 0 7 5 3 11 -7 12 49 7 160 -14 11 -2 22 -10 24 -17 3 -7 0
-10 -7 -6 -6 4 -11 2 -11 -3 0 -17 18 -13 29 7 9 16 10 16 17 -1 5 -15 9 -16
15 -5 7 10 9 11 9 0 0 -7 3 -11 8 -8 12 7 86 -48 99 -74 7 -14 13 -20 13 -15
0 11 37 -44 41 -60 1 -5 9 -16 18 -23 9 -8 11 -11 5 -8 -6 3 -3 -11 7 -32 10
-20 20 -46 22 -57 2 -11 7 -27 10 -35 7 -20 31 -149 33 -182 1 -16 2 -39 3
-53 1 -22 4 -25 26 -19 17 4 25 2 25 -7 0 -9 3 -10 8 -4 10 15 162 16 162 1 0
-8 2 -8 8 0 9 13 94 13 104 -1 5 -6 8 -5 8 3 0 6 9 12 20 12 11 0 20 -6 20
-12 0 -9 3 -10 8 -2 9 13 94 13 104 -1 5 -6 8 -5 8 3 0 6 9 12 20 12 11 0 20
-6 20 -12 0 -9 3 -9 8 -2 9 13 102 13 102 -1 0 -5 4 -4 9 3 5 9 21 12 44 9 24
-3 34 -1 32 7 -3 6 -7 34 -9 61 -5 55 -17 154 -21 170 -1 6 -5 21 -8 35 -4 14
-9 36 -11 50 -13 81 -68 245 -113 335 -152 303 -374 466 -740 541 -172 36
-460 42 -628 14z"/>
<path d="M2396 3741 c-3 -5 1 -14 8 -20 10 -9 16 -9 21 -1 4 6 1 9 -7 8 -7 -2
-12 3 -10 10 2 14 -4 16 -12 3z"/>
<path d="M2470 3740 c0 -5 5 -10 11 -10 5 0 7 5 4 10 -3 6 -8 10 -11 10 -2 0
-4 -4 -4 -10z"/>
<path d="M2614 3726 c1 -8 5 -18 8 -22 4 -3 5 1 4 10 -1 8 -5 18 -8 22 -4 3
-5 -1 -4 -10z"/>
<path d="M2286 3722 c-3 -5 1 -9 9 -9 8 0 12 4 9 9 -3 4 -7 8 -9 8 -2 0 -6 -4
-9 -8z"/>
<path d="M2748 3693 c6 -2 10 -8 7 -13 -7 -11 22 -7 32 5 4 4 3 5 -4 1 -6 -3
-14 -2 -18 4 -3 5 -12 10 -18 9 -9 0 -8 -2 1 -6z"/>
<path d="M2228 3683 c7 -3 16 -2 19 1 4 3 -2 6 -13 5 -11 0 -14 -3 -6 -6z"/>
<path d="M2813 3645 c0 -8 4 -12 9 -9 5 3 6 10 3 15 -9 13 -12 11 -12 -6z"/>
<path d="M2135 3640 c-3 -5 -1 -10 4 -10 6 0 11 5 11 10 0 6 -2 10 -4 10 -3 0
-8 -4 -11 -10z"/>
<path d="M3070 3140 c0 -6 7 -10 15 -10 8 0 15 2 15 4 0 2 -7 6 -15 10 -8 3
-15 1 -15 -4z"/>
<path d="M3115 3141 c-3 -5 -2 -12 3 -15 5 -3 9 1 9 9 0 17 -3 19 -12 6z"/>
<path d="M3159 3148 c-6 -22 -5 -38 3 -38 6 0 8 6 5 14 -3 8 -1 17 6 20 9 3 9
5 0 5 -7 1 -13 0 -14 -1z"/>
<path d="M3195 3140 c-3 -5 -1 -10 4 -10 6 0 11 5 11 10 0 6 -2 10 -4 10 -3 0
-8 -4 -11 -10z"/>
<path d="M3255 3141 c-3 -6 3 -15 14 -21 14 -7 22 -7 26 0 4 6 3 10 -2 9 -20
-3 -34 2 -28 11 3 6 4 10 1 10 -3 0 -7 -4 -11 -9z"/>
<path d="M3350 3140 c0 -5 5 -10 10 -10 6 0 10 5 10 10 0 6 -4 10 -10 10 -5 0
-10 -4 -10 -10z"/>
<path d="M3415 3141 c-3 -6 3 -15 14 -21 14 -7 22 -7 26 0 4 6 3 10 -2 9 -20
-3 -34 2 -28 11 3 6 4 10 1 10 -3 0 -7 -4 -11 -9z"/>
<path d="M3510 3140 c0 -5 5 -10 10 -10 6 0 10 5 10 10 0 6 -4 10 -10 10 -5 0
-10 -4 -10 -10z"/>
<path d="M3575 3141 c-3 -6 3 -15 14 -21 14 -7 22 -7 26 0 4 6 3 10 -2 9 -20
-3 -34 2 -28 11 3 6 4 10 1 10 -3 0 -7 -4 -11 -9z"/>
<path d="M3670 3142 c0 -5 7 -9 15 -9 8 0 12 4 9 9 -3 4 -9 8 -15 8 -5 0 -9
-4 -9 -8z"/>
<path d="M3325 3120 c10 -11 20 -20 23 -20 3 0 -3 9 -13 20 -10 11 -20 20 -23
20 -3 0 3 -9 13 -20z"/>
<path d="M3485 3120 c10 -11 20 -20 23 -20 3 0 -3 9 -13 20 -10 11 -20 20 -23
20 -3 0 3 -9 13 -20z"/>
<path d="M3645 3120 c10 -11 20 -20 23 -20 3 0 -3 9 -13 20 -10 11 -20 20 -23
20 -3 0 3 -9 13 -20z"/>
<path d="M2516 2005 c-3 -8 -1 -15 4 -15 6 0 10 7 10 15 0 8 -2 15 -4 15 -2 0
-6 -7 -10 -15z"/>
<path d="M2591 2004 c0 -11 3 -14 6 -6 3 7 2 16 -1 19 -3 4 -6 -2 -5 -13z"/>
<path d="M2621 1997 c-13 -21 -12 -21 5 -5 10 10 16 20 13 22 -3 3 -11 -5 -18
-17z"/>
<path d="M2841 2004 c0 -11 3 -14 6 -6 3 7 2 16 -1 19 -3 4 -6 -2 -5 -13z"/>
<path d="M2910 2006 c0 -8 4 -17 9 -20 5 -4 7 3 4 14 -6 23 -13 26 -13 6z"/>
<path d="M2650 2002 c0 -5 7 -9 15 -9 8 0 12 4 9 9 -3 4 -9 8 -15 8 -5 0 -9
-4 -9 -8z"/>
<path d="M2793 1995 c0 -8 4 -12 9 -9 5 3 6 10 3 15 -9 13 -12 11 -12 -6z"/>
<path d="M1536 942 c-3 -5 1 -9 9 -9 8 0 12 4 9 9 -3 4 -7 8 -9 8 -2 0 -6 -4
-9 -8z"/>
<path d="M3510 849 c0 -5 5 -7 10 -4 6 3 10 8 10 11 0 2 -4 4 -10 4 -5 0 -10
-5 -10 -11z"/>
<path d="M1615 840 c-3 -5 -1 -10 4 -10 6 0 11 5 11 10 0 6 -2 10 -4 10 -3 0
-8 -4 -11 -10z"/>
<path d="M1690 786 c0 -2 7 -7 16 -10 8 -3 12 -2 9 4 -6 10 -25 14 -25 6z"/>
<path d="M1796 742 c-2 -4 -1 -14 4 -22 7 -11 9 -9 7 8 -1 24 -3 26 -11 14z"/>
<path d="M1876 702 c-2 -4 -1 -14 4 -22 7 -11 9 -9 7 8 -1 24 -3 26 -11 14z"/>
<path d="M3260 705 c0 -8 29 -12 39 -5 9 5 4 8 -13 8 -14 0 -26 -2 -26 -3z"/>
<path d="M1900 691 c0 -10 19 -25 25 -20 1 2 -3 10 -11 17 -8 7 -14 8 -14 3z"/>
<path d="M3155 650 c-4 -6 -11 -7 -17 -4 -7 4 -8 2 -4 -5 6 -9 11 -9 22 0 14
11 18 19 10 19 -3 0 -8 -5 -11 -10z"/>
<path d="M1990 640 c0 -5 5 -10 11 -10 5 0 7 5 4 10 -3 6 -8 10 -11 10 -2 0
-4 -4 -4 -10z"/>
<path d="M3076 633 c-6 -14 -5 -15 5 -6 7 7 10 15 7 18 -3 3 -9 -2 -12 -12z"/>
<path d="M2055 629 c-4 -6 -5 -12 -2 -15 2 -3 7 2 10 11 7 17 1 20 -8 4z"/>
<path d="M2073 605 c0 -8 4 -12 9 -9 5 3 6 10 3 15 -9 13 -12 11 -12 -6z"/>
<path d="M2855 600 c-3 -5 -1 -10 4 -10 6 0 11 5 11 10 0 6 -2 10 -4 10 -3 0
-8 -4 -11 -10z"/>
<path d="M2910 595 c0 -8 2 -15 4 -15 2 0 6 7 10 15 3 8 1 15 -4 15 -6 0 -10
-7 -10 -15z"/>
<path d="M2275 581 c-3 -5 0 -13 6 -17 8 -5 9 -3 4 6 -6 10 -4 12 9 7 10 -4
15 -3 11 3 -8 13 -22 13 -30 1z"/>
<path d="M2730 570 c-6 -11 -8 -20 -6 -20 3 0 10 9 16 20 6 11 8 20 6 20 -3 0
-10 -9 -16 -20z"/>
<path d="M2510 565 c0 -8 4 -15 10 -15 5 0 7 7 4 15 -4 8 -8 15 -10 15 -2 0
-4 -7 -4 -15z"/>
<path d="M2590 569 c0 -5 5 -7 10 -4 6 3 10 8 10 11 0 2 -4 4 -10 4 -5 0 -10
-5 -10 -11z"/>
<path d="M2315 560 c-3 -5 -1 -10 4 -10 6 0 11 5 11 10 0 6 -2 10 -4 10 -3 0
-8 -4 -11 -10z"/>
<path d="M2470 565 c0 -5 5 -17 10 -25 5 -8 10 -10 10 -5 0 6 -5 17 -10 25 -5
8 -10 11 -10 5z"/>
</g>
</svg>
