<?xml version="1.0" standalone="no"?>
<!DOCTYPE svg PUBLIC "-//W3C//DTD SVG 20010904//EN"
 "http://www.w3.org/TR/2001/REC-SVG-20010904/DTD/svg10.dtd">
<svg version="1.0" xmlns="http://www.w3.org/2000/svg"
 width="300.000000pt" height="300.000000pt" viewBox="0 0 300.000000 300.000000"
 preserveAspectRatio="xMidYMid meet">
<metadata>
Created by potrace 1.14, written by Peter Selinger 2001-2017
</metadata>
<g transform="translate(0.000000,300.000000) scale(0.100000,-0.100000)"
fill="#000000" stroke="none">
<path d="M574 2542 c-5 -4 -9 -13 -8 -19 1 -7 2 -20 3 -28 0 -8 11 -15 23 -15
34 0 108 -86 162 -191 27 -51 58 -110 69 -129 11 -19 35 -64 55 -100 44 -83
87 -162 122 -225 15 -27 48 -88 73 -135 25 -47 86 -161 137 -255 l92 -170 -1
-288 c0 -158 -3 -304 -7 -325 -16 -88 -52 -118 -154 -129 -58 -6 -61 -7 -58
-32 l3 -26 453 0 452 0 0 27 c0 25 -4 28 -33 28 -63 0 -134 28 -159 63 l-23
32 -3 421 -3 420 182 360 c100 197 198 386 217 419 63 106 129 186 182 217 19
12 37 23 39 25 3 2 6 16 7 31 l2 27 -293 0 -294 0 -4 -23 c-5 -27 -3 -29 53
-37 135 -20 193 -86 189 -214 -3 -98 -36 -183 -196 -505 l-144 -290 -23 40
c-12 21 -43 80 -68 129 -25 50 -87 169 -137 265 -228 439 -245 475 -237 504 9
36 72 64 152 68 61 3 76 14 67 49 -4 15 -18 17 -121 12 -159 -8 -645 -9 -708
-1 -28 3 -55 3 -60 0z"/>
</g>
</svg>
